<mxfile host="app.diagrams.net" modified="2023-12-26T11:41:06.019Z" agent="Mozilla/5.0 (Macintosh; Intel Mac OS X 10_15_7) AppleWebKit/605.1.15 (KHTML, like Gecko) Version/17.2.1 Safari/605.1.15" etag="a-um5BFDDA80Iq3fY3Sd" version="22.1.11" type="github">
  <diagram id="C5RBs43oDa-KdzZeNtuy" name="Page-1">
    <mxGraphModel dx="855" dy="558" grid="1" gridSize="10" guides="1" tooltips="1" connect="1" arrows="1" fold="1" page="1" pageScale="1" pageWidth="827" pageHeight="1169" math="0" shadow="0">
      <root>
        <mxCell id="WIyWlLk6GJQsqaUBKTNV-0" />
        <mxCell id="WIyWlLk6GJQsqaUBKTNV-1" parent="WIyWlLk6GJQsqaUBKTNV-0" />
        <mxCell id="pr-PVTwI7A8iV8tweyMp-5" value="" style="edgeStyle=orthogonalEdgeStyle;rounded=0;orthogonalLoop=1;jettySize=auto;html=1;" edge="1" parent="WIyWlLk6GJQsqaUBKTNV-1" source="WIyWlLk6GJQsqaUBKTNV-3" target="pr-PVTwI7A8iV8tweyMp-4">
          <mxGeometry relative="1" as="geometry" />
        </mxCell>
        <mxCell id="WIyWlLk6GJQsqaUBKTNV-3" value="&lt;h3&gt;&lt;b&gt;Data collection&lt;/b&gt;&lt;/h3&gt;Python script to download weather data from 1950 to 2023" style="rounded=1;whiteSpace=wrap;html=1;fontSize=12;glass=0;strokeWidth=1;shadow=0;" parent="WIyWlLk6GJQsqaUBKTNV-1" vertex="1">
          <mxGeometry x="220" y="240" width="370" height="80" as="geometry" />
        </mxCell>
        <mxCell id="pr-PVTwI7A8iV8tweyMp-0" value="&lt;h1&gt;Data flow for&amp;nbsp;WeatherWattPredict&#39;s project&lt;/h1&gt;&lt;h2&gt;Weather data&lt;/h2&gt;" style="text;html=1;strokeColor=none;fillColor=none;align=center;verticalAlign=middle;whiteSpace=wrap;rounded=0;" vertex="1" parent="WIyWlLk6GJQsqaUBKTNV-1">
          <mxGeometry x="40" y="10" width="760" height="140" as="geometry" />
        </mxCell>
        <UserObject label="src/data_collection.py" placeholders="1" name="Variable" id="pr-PVTwI7A8iV8tweyMp-3">
          <mxCell style="text;html=1;strokeColor=none;fillColor=none;align=center;verticalAlign=middle;whiteSpace=wrap;overflow=hidden;" vertex="1" parent="WIyWlLk6GJQsqaUBKTNV-1">
            <mxGeometry x="621" y="340" width="160" height="20" as="geometry" />
          </mxCell>
        </UserObject>
        <mxCell id="pr-PVTwI7A8iV8tweyMp-15" value="" style="edgeStyle=orthogonalEdgeStyle;rounded=0;orthogonalLoop=1;jettySize=auto;html=1;" edge="1" parent="WIyWlLk6GJQsqaUBKTNV-1" source="pr-PVTwI7A8iV8tweyMp-4" target="pr-PVTwI7A8iV8tweyMp-14">
          <mxGeometry relative="1" as="geometry" />
        </mxCell>
        <mxCell id="pr-PVTwI7A8iV8tweyMp-4" value="&lt;h3&gt;&lt;b&gt;Data cleaning&lt;/b&gt;&lt;/h3&gt;&lt;ul&gt;&lt;li&gt;Select correct time range with pySpark&lt;/li&gt;&lt;li&gt;Merge df&lt;/li&gt;&lt;li&gt;Cast time&lt;/li&gt;&lt;li&gt;Aggregate into region&lt;/li&gt;&lt;/ul&gt;" style="rounded=1;whiteSpace=wrap;html=1;fontSize=12;glass=0;strokeWidth=1;shadow=0;" vertex="1" parent="WIyWlLk6GJQsqaUBKTNV-1">
          <mxGeometry x="223" y="470" width="364" height="120" as="geometry" />
        </mxCell>
        <mxCell id="pr-PVTwI7A8iV8tweyMp-6" value="&lt;div style=&quot;&quot;&gt;src/eda_spark.py&lt;/div&gt;&lt;span style=&quot;caret-color: rgb(0, 0, 0); color: rgb(0, 0, 0); font-family: Helvetica; font-size: 12px; font-style: normal; font-variant-caps: normal; font-weight: 400; letter-spacing: normal; text-indent: 0px; text-transform: none; word-spacing: 0px; -webkit-text-stroke-width: 0px; background-color: rgb(251, 251, 251); text-decoration: none; float: none; display: inline !important;&quot;&gt;&lt;div style=&quot;&quot;&gt;src/merge.py&lt;/div&gt;&lt;div style=&quot;text-align: center;&quot;&gt;src/fix_geoloc.py&lt;/div&gt;&lt;/span&gt;" style="text;whiteSpace=wrap;html=1;" vertex="1" parent="WIyWlLk6GJQsqaUBKTNV-1">
          <mxGeometry x="621" y="500" width="150" height="50" as="geometry" />
        </mxCell>
        <mxCell id="pr-PVTwI7A8iV8tweyMp-17" value="" style="edgeStyle=orthogonalEdgeStyle;rounded=0;orthogonalLoop=1;jettySize=auto;html=1;" edge="1" parent="WIyWlLk6GJQsqaUBKTNV-1" source="pr-PVTwI7A8iV8tweyMp-14" target="pr-PVTwI7A8iV8tweyMp-16">
          <mxGeometry relative="1" as="geometry" />
        </mxCell>
        <mxCell id="pr-PVTwI7A8iV8tweyMp-14" value="&lt;h3&gt;Data viz&lt;/h3&gt;" style="whiteSpace=wrap;html=1;rounded=1;glass=0;strokeWidth=1;shadow=0;" vertex="1" parent="WIyWlLk6GJQsqaUBKTNV-1">
          <mxGeometry x="225" y="715" width="360" height="60" as="geometry" />
        </mxCell>
        <mxCell id="pr-PVTwI7A8iV8tweyMp-16" value="&lt;h3&gt;Statistical Analysis over year&lt;/h3&gt;" style="whiteSpace=wrap;html=1;rounded=1;glass=0;strokeWidth=1;shadow=0;" vertex="1" parent="WIyWlLk6GJQsqaUBKTNV-1">
          <mxGeometry x="225" y="900" width="360" height="100" as="geometry" />
        </mxCell>
      </root>
    </mxGraphModel>
  </diagram>
</mxfile>
